<svg height="671.475" viewBox="0 0 503.607 503.607" width="671.475" xmlns="http://www.w3.org/2000/svg"><path d="M251.805 0C112.735 0 0 112.734 0 251.805c0 139.066 112.734 251.8 251.805 251.8 139.066 0 251.8-112.734 251.8-251.8C503.45 112.8 390.805.156 251.805 0zm0 486.82c-129.797 0-235.02-105.222-235.02-235.015 0-129.797 105.223-235.02 235.02-235.02 129.793 0 235.015 105.223 235.015 235.02-.144 129.734-105.28 234.87-235.015 235.015zm0 0"/><path d="M251.805 33.566a217.857 217.857 0 00-140.817 51.77c-.093.074-.129.184-.21.27-.087.082-.212.109-.294.19-.277.349-.52.716-.73 1.102a5.307 5.307 0 00-1.36 2.93 8.797 8.797 0 00-.304 1.559c.004.539.062 1.07.176 1.597.054.524.156 1.043.304 1.551.23.52.512 1.012.84 1.477.18.398.395.785.637 1.152.074.09.183.125.27.207.081.086.109.211.19.297l49.372 49.367-9.512 14.27-51.828-51.828c-.074-.079-.184-.102-.27-.176-.082-.078-.109-.176-.19-.254a7.339 7.339 0 00-1.184-.664 8.012 8.012 0 00-1.454-.836 8.064 8.064 0 00-1.578-.313 9.214 9.214 0 00-1.57-.183 7.78 7.78 0 00-1.578.308 8.034 8.034 0 00-1.528.414 8.56 8.56 0 00-1.402.93c-.39.215-.765.465-1.113.746-.086.078-.102.188-.176.262-.078.074-.18.117-.254.203-74.18 86.488-69.25 215.516 11.317 296.094 80.566 80.578 209.59 85.531 296.093 11.363.086-.066.118-.176.203-.25.082-.074.176-.094.25-.168a7.82 7.82 0 00.739-1.11c.36-.44.676-.913.941-1.417a7.87 7.87 0 00.41-1.528 7.931 7.931 0 00.313-1.57 8.714 8.714 0 00-.196-1.586 7.965 7.965 0 00-.3-1.57c-.235-.512-.516-1-.84-1.461-.188-.406-.41-.8-.664-1.172-.074-.086-.176-.117-.242-.195-.067-.074-.102-.184-.176-.258l-33.531-33.535a24.63 24.63 0 00.359-3.172v-20.277l45.098 45.097c.086.082.203.11.293.192.093.086.128.195.218.277.48.355 1 .652 1.547.89.266.192.547.364.836.512a8.178 8.178 0 002.988.59 8.394 8.394 0 003.309-.715c.332-.191.652-.406.957-.636a8.126 8.126 0 001.68-1.11c.09-.094.117-.21.199-.3.086-.094.195-.11.27-.204 54.914-64.836 67.183-155.66 31.44-232.742C414.017 82.867 336.77 33.547 251.806 33.566zm92.328 334.813a8.394 8.394 0 01-8.395 8.394h-167.87a8.393 8.393 0 01-8.391-8.394V183.723h184.656zM166.762 166.938l22.383-33.575H314.46l22.383 33.575zm143.797-50.36H193.05v-8.394a8.393 8.393 0 018.39-8.395h100.723a8.394 8.394 0 018.395 8.395zm-260.2 135.215a200.676 200.676 0 0142.97-123.777l49.358 49.363v191c0 13.906 11.274 25.18 25.18 25.18h167.871a24.968 24.968 0 0016.676-6.454l23.168 23.165c-60.57 47.601-143.012 56.398-212.262 22.656C94.07 399.18 50.195 328.828 50.36 251.793zm360.793 122.805l-50.234-50.235V175.332a6.892 6.892 0 00-.152-.75 8.969 8.969 0 00-.973-3.203 6.52 6.52 0 00-.285-.707l-32.164-48.219v-14.27c0-13.906-11.274-25.18-25.18-25.18H201.441c-13.906 0-25.18 11.274-25.18 25.18v14.27l-6.906 10.363-40.289-40.285c80.043-61.992 193.692-54.8 265.286 16.785 71.59 71.586 78.789 185.235 16.8 265.282zm0 0"/><path d="M304.86 200.922a8.394 8.394 0 00-5.801 7.984c0 4.91-7.848 11.012-19.422 15.418-.84-.46-1.762-.84-2.653-1.277v-14.14a8.394 8.394 0 00-8.394-8.395 8.394 8.394 0 00-8.395 8.394v9.063a52.829 52.829 0 00-16.785 0v-9.063a8.394 8.394 0 00-16.79 0v14.14c-.886.423-1.784.84-2.651 1.278-11.574-4.406-19.422-10.508-19.422-15.418a8.394 8.394 0 00-15.192-4.93c-11.32 15.637-24.265 50.54 3.887 74.493a57.677 57.677 0 009.63 29.789 35.447 35.447 0 00-1.43 9.762c0 23.14 22.59 41.968 50.363 41.968s50.36-18.828 50.36-41.968a35.296 35.296 0 00-1.427-9.762 57.709 57.709 0 009.625-29.79c28.153-23.952 15.211-58.855 3.887-74.491a8.397 8.397 0 00-9.39-3.055zM196.04 226.89a54.343 54.343 0 0012.925 9.082A58.736 58.736 0 00196.5 256.41a35.24 35.24 0 01-.46-29.52zm55.765 116.308c-18.516 0-33.575-11.297-33.575-25.18 0-13.882 15.06-25.18 33.575-25.18s33.574 11.298 33.574 25.18c0 13.883-15.059 25.18-33.574 25.18zm0-67.148a54.655 54.655 0 00-38.938 15.386 41.563 41.563 0 01-3.031-15.386c0-23.176 18.789-41.965 41.969-41.965 23.175 0 41.965 18.789 41.965 41.965a41.56 41.56 0 01-3.028 15.387 54.669 54.669 0 00-38.937-15.387zm55.304-19.64a58.754 58.754 0 00-12.5-20.438 54.421 54.421 0 0012.926-9.082 35.255 35.255 0 01-.426 29.52zm0 0"/><path d="M229.059 312.059a7.994 7.994 0 00-1.008 1.343c-.332.43-.59.91-.758 1.426-.242.477-.41.988-.504 1.512a13.44 13.44 0 00-.168 1.68 8.33 8.33 0 002.434 5.96 8.338 8.338 0 005.96 2.434c.563-.02 1.126-.074 1.68-.168a5.425 5.425 0 001.512-.504 4.642 4.642 0 001.426-.758 7.84 7.84 0 001.344-1.007c3.289-3.29 3.289-8.625 0-11.918-3.293-3.29-8.63-3.29-11.918 0zm0 0M274.55 312.059a8.708 8.708 0 00-2.769-1.762 8.02 8.02 0 00-4.87-.504 5.4 5.4 0 00-1.509.504 6.434 6.434 0 00-1.511.754l-1.262 1.008a8.708 8.708 0 00-1.762 2.77 8.463 8.463 0 00-.672 3.19 8.331 8.331 0 002.434 5.961 8.331 8.331 0 005.96 2.434 8.463 8.463 0 003.192-.672 7.875 7.875 0 002.77-1.765 8.84 8.84 0 002.433-5.957 8.463 8.463 0 00-.672-3.192 9.76 9.76 0 00-1.761-2.77zm0 0M242.738 256.074a6.333 6.333 0 00-.754-1.508 13.712 13.712 0 00-1.007-1.261 9.76 9.76 0 00-2.77-1.762 8.39 8.39 0 00-6.379 0 9.706 9.706 0 00-2.77 1.762l-1.007 1.261c-.32.465-.574.973-.758 1.508-.242.477-.41.985-.504 1.512a12.113 12.113 0 00-.168 1.68 8.428 8.428 0 00.672 3.187 8.61 8.61 0 001.766 2.77 8.51 8.51 0 0011.918 0 8.665 8.665 0 001.761-2.77c.43-1.008.66-2.09.672-3.187a11.543 11.543 0 00-.168-1.68 5.3 5.3 0 00-.504-1.512zm0 0M276.313 256.074a6.334 6.334 0 00-.754-1.508 13.713 13.713 0 00-1.008-1.261 9.76 9.76 0 00-2.77-1.762 8.39 8.39 0 00-6.379 0 9.725 9.725 0 00-2.773 1.762l-1.004 1.261c-.32.465-.574.973-.758 1.508-.242.477-.41.985-.504 1.512a11.543 11.543 0 00-.168 1.68 8.428 8.428 0 00.672 3.187 8.665 8.665 0 001.762 2.77 8.515 8.515 0 0011.922 0 8.665 8.665 0 001.762-2.77c.43-1.008.656-2.09.671-3.187a11.543 11.543 0 00-.168-1.68 5.425 5.425 0 00-.503-1.512zm0 0"/></svg>