<svg height="512pt" viewBox="0 0 512 512" width="512pt" xmlns="http://www.w3.org/2000/svg"><path d="m256 0c-140.960938 0-256 115.050781-256 256 0 140.960938 115.050781 256 256 256 140.960938 0 256-115.050781 256-256 0-68.113281-26.703125-132.328125-75.1875-180.8125s-112.699219-75.1875-180.8125-75.1875zm-226 256c0-124.617188 101.382812-226 226-226 56.921875 0 108.988281 21.160156 148.765625 56.019531l-92.011719 92.011719c-17.695312-33.507812-40.945312-54.488281-42.507812-56.277344-41.03125-41.035156-107.453125-41.039062-148.492188 0-40.9375 40.9375-40.9375 107.554688 0 148.492188 2.589844 2.261718 21.917969 24.359375 56.277344 42.507812l-92.011719 92.015625c-34.859375-39.78125-56.019531-91.847656-56.019531-148.769531zm325.097656 141.523438c-5.847656 5.847656-15.363281 5.851562-21.210937 0-5.863281-5.859376-5.863281-15.347657 0-21.210938l10.605469-10.609375-42.425782-42.425781 21.214844-21.210938 42.425781 42.425782 10.605469-10.605469c5.863281-5.863281 15.347656-5.863281 21.210938 0 5.863281 5.859375 5.863281 15.347656 0 21.210937-5.859376 5.863282-15.347657 5.863282-21.210938 0l-21.214844 21.214844c5.847656 5.847656 5.847656 15.363281 0 21.210938zm-53.292968-166.113282c3.75 14 5.914062 28.515625 6.378906 43.324219l-33.449219 33.449219c-14.808594-.464844-29.324219-2.628906-43.324219-6.378906zm-101.476563 59.046875c-35.390625-16.59375-54.785156-39.222656-57.359375-41.425781-29.242188-29.242188-29.242188-76.820312 0-106.0625 29.308594-29.3125 76.75-29.316406 106.0625 0 2.175781 2.539062 24.894531 22.101562 41.425781 57.359375zm55.671875 191.542969c-56.921875 0-108.988281-21.160156-148.765625-56.019531l100.292969-100.292969c21.589844 7.65625 44.058594 11.84375 67.015625 12.492188l29.324219 29.328124c-7.839844 16.375-5.308594 37.117188 8.804687 51.230469 17.546875 17.542969 46.09375 17.546875 63.640625 0 8.136719-8.136719 12.5-18.640625 13.089844-29.3125 11.085937-.601562 21.425781-5.203125 29.335937-13.113281 17.585938-17.585938 17.589844-46.050781 0-63.640625-14.101562-14.097656-34.839843-16.652344-51.230469-8.804687l-29.328124-29.328126c-.648438-22.953124-4.839844-45.421874-12.492188-67.015624l100.292969-100.289063c34.859375 39.777344 56.019531 91.84375 56.019531 148.765625 0 124.617188-101.382812 226-226 226zm0 0"/></svg>