<svg id="Capa_1" enable-background="new 0 0 512 512" height="512" viewBox="0 0 512 512" width="512" xmlns="http://www.w3.org/2000/svg">
    <g>
        <path d="m498.762 278.608c-3.416-8.139-6.642-15.826-6.642-22.608 0-6.784 3.226-14.473 6.642-22.613 4.682-11.158 9.523-22.697 6.872-34.362-2.757-12.128-12.335-20.58-21.598-28.754-6.421-5.666-12.486-11.018-15.251-16.75-2.857-5.921-3.287-14.127-3.741-22.815-.638-12.204-1.298-24.823-8.898-34.34-7.639-9.566-19.832-13.011-31.623-16.342-8.34-2.356-16.218-4.582-21.307-8.646-5.038-4.023-8.932-11.177-13.054-18.751-5.878-10.8-11.957-21.968-23.056-27.323-10.896-5.257-23.303-3.093-35.3-1.001-8.614 1.503-16.752 2.922-23.245 1.446-6.107-1.388-12.625-6.073-19.525-11.033-10.07-7.234-20.48-14.716-33.036-14.716-12.558 0-22.97 7.483-33.039 14.719-6.901 4.96-13.42 9.645-19.528 11.033-6.493 1.477-14.631.058-23.247-1.444-11.998-2.092-24.405-4.254-35.302 1.003-11.1 5.356-17.179 16.525-23.057 27.326-4.123 7.575-8.016 14.729-13.055 18.753-5.089 4.064-12.966 6.29-21.306 8.646-11.791 3.332-23.983 6.777-31.622 16.344-7.599 9.517-8.257 22.135-8.895 34.338-.454 8.688-.882 16.894-3.739 22.815-2.765 5.731-8.83 11.083-15.25 16.749-9.262 8.173-18.839 16.625-21.596 28.753-2.651 11.664 2.19 23.2 6.873 34.356 3.416 8.139 6.642 15.826 6.642 22.608 0 6.784-3.226 14.473-6.642 22.613-4.682 11.158-9.523 22.697-6.872 34.362 2.757 12.128 12.335 20.58 21.598 28.754 6.421 5.666 12.486 11.018 15.251 16.75 2.857 5.921 3.287 14.127 3.741 22.815.638 12.204 1.298 24.823 8.898 34.34 7.639 9.566 19.832 13.011 31.623 16.342 8.34 2.356 16.218 4.582 21.307 8.646 5.038 4.023 8.932 11.177 13.054 18.751 5.878 10.8 11.957 21.968 23.056 27.323 10.896 5.257 23.303 3.093 35.3 1.001 8.614-1.503 16.751-2.923 23.245-1.446 6.107 1.388 12.625 6.073 19.525 11.033 10.071 7.235 20.481 14.717 33.037 14.717 12.558 0 22.97-7.483 33.039-14.719 6.901-4.96 13.42-9.645 19.528-11.033 6.494-1.477 14.631-.057 23.247 1.444 11.999 2.092 24.405 4.254 35.302-1.003 11.1-5.356 17.179-16.525 23.057-27.326 4.123-7.575 8.016-14.729 13.055-18.753 5.089-4.064 12.966-6.29 21.306-8.646 11.791-3.332 23.983-6.777 31.622-16.344 7.599-9.517 8.257-22.135 8.895-34.338.454-8.688.882-16.894 3.739-22.815 2.765-5.731 8.83-11.083 15.25-16.749 9.262-8.173 18.839-16.625 21.596-28.753 2.651-11.664-2.191-23.2-6.874-34.357zm-7.754 31.032c-1.684 7.408-9.072 13.928-16.895 20.831-7.253 6.401-14.754 13.021-18.834 21.478-4.169 8.641-4.697 18.762-5.208 28.55-.537 10.29-1.045 20.009-5.637 25.761-4.632 5.802-14.03 8.457-23.979 11.269-9.406 2.658-19.132 5.407-26.588 11.36-7.405 5.914-12.217 14.754-16.87 23.304-4.962 9.117-9.648 17.729-16.4 20.986-6.552 3.161-16.099 1.498-26.208-.264-9.694-1.69-19.719-3.437-29.148-1.294-9.07 2.062-17.146 7.867-24.957 13.479-8.514 6.12-16.557 11.9-24.284 11.9-7.725 0-15.766-5.779-24.279-11.898-7.81-5.613-15.885-11.417-24.955-13.479-3.121-.709-6.306-.992-9.523-.992-6.504 0-13.138 1.157-19.623 2.288-10.107 1.763-19.654 3.427-26.206.267-6.75-3.257-11.437-11.868-16.398-20.983-4.653-8.549-9.465-17.39-16.87-23.302-7.456-5.953-17.182-8.701-26.588-11.359-9.949-2.811-19.347-5.465-23.979-11.267-4.593-5.751-5.102-15.472-5.64-25.763-.512-9.788-1.042-19.909-5.211-28.55-4.081-8.458-11.582-15.077-18.836-21.479-7.823-6.903-15.212-13.423-16.896-20.832-1.585-6.973 2.136-15.843 6.076-25.233 3.84-9.151 7.81-18.613 7.81-28.417 0-9.802-3.971-19.264-7.811-28.414-3.94-9.388-7.662-18.255-6.077-25.227 1.684-7.408 9.072-13.928 16.895-20.831 7.253-6.401 14.754-13.021 18.834-21.478 4.169-8.641 4.697-18.762 5.208-28.55.537-10.29 1.045-20.009 5.637-25.761 4.632-5.802 14.03-8.457 23.979-11.269 9.406-2.658 19.132-5.407 26.588-11.36 7.405-5.914 12.217-14.754 16.87-23.304 4.962-9.117 9.648-17.729 16.4-20.986 6.553-3.161 16.1-1.498 26.208.264 9.694 1.69 19.718 3.438 29.148 1.294 9.07-2.062 17.146-7.867 24.957-13.479 8.512-6.12 16.555-11.9 24.282-11.9 7.725 0 15.766 5.779 24.279 11.898 7.81 5.613 15.885 11.417 24.955 13.479 9.428 2.143 19.454.395 29.146-1.295 10.107-1.763 19.654-3.427 26.206-.267 6.75 3.257 11.437 11.868 16.398 20.983 4.653 8.549 9.465 17.39 16.87 23.302 7.456 5.953 17.182 8.701 26.588 11.359 9.949 2.811 19.347 5.465 23.979 11.267 4.593 5.751 5.102 15.472 5.64 25.763.512 9.788 1.042 19.909 5.211 28.55 4.081 8.458 11.582 15.077 18.836 21.479 7.823 6.903 15.212 13.423 16.896 20.832 1.585 6.973-2.136 15.843-6.076 25.233-3.84 9.151-7.81 18.613-7.81 28.417 0 9.802 3.971 19.264 7.811 28.414 3.942 9.387 7.664 18.255 6.079 25.226z"/><path d="m256 348.727c-.69 0-1.192-.316-1.491-.938l-67.421-140.46c-5.005-10.428-15.714-17.167-27.282-17.167-4.142 0-7.5 3.358-7.5 7.5s3.358 7.5 7.5 7.5c5.834 0 11.234 3.398 13.759 8.658l67.421 140.46c2.797 5.827 8.55 9.447 15.014 9.447 6.463 0 12.216-3.62 15.012-9.447l32.147-66.973c24.566-7.124 44.928-24.726 56.161-48.691 11.669-24.897 11.761-52.974.253-77.032-1.542-3.224-5.144-4.912-8.607-4.034-25.852 6.547-47.372 24.582-59.041 49.479-11.048 23.572-11.712 49.993-1.985 73.156l-32.45 67.604c-.299.623-.8.938-1.49.938zm92.538-174.797c6.953 18.603 6.013 39.517-2.8 58.321-7.182 15.323-18.787 27.522-32.981 35.063l26.416-55.033c1.792-3.734.218-8.214-3.516-10.007-3.735-1.792-8.214-.218-10.007 3.516l-6.602 13.753-8.114-15.875c9.102-13.93 22.252-24.368 37.604-29.738zm-45.907 46.451 8.259 16.159-11.398 23.745c-2.566-13.107-1.525-26.864 3.139-39.904z"/><path d="m392.356 131.749c-3.17 2.667-3.578 7.398-.911 10.567 28.387 33.743 43.039 76.683 41.257 120.908-1.792 44.486-20.13 86.337-51.636 117.843-31.505 31.505-73.356 49.843-117.842 51.636-44.221 1.787-87.165-12.87-120.908-41.257-3.169-2.667-7.9-2.258-10.567.911s-2.259 7.901.911 10.567c34.622 29.126 78.15 44.924 123.347 44.924 2.599 0 5.213-.053 7.822-.158 48.263-1.945 93.667-21.838 127.845-56.017 34.179-34.179 54.072-79.582 56.017-127.845 1.933-47.972-13.965-94.555-44.767-131.168-2.666-3.17-7.398-3.577-10.568-.911z"/><path d="m79.297 248.775c1.792-44.486 20.13-86.337 51.636-117.842s73.356-49.843 117.843-51.636c44.229-1.777 87.165 12.871 120.908 41.257 3.169 2.667 7.901 2.259 10.567-.911 2.667-3.169 2.259-7.901-.911-10.567-36.612-30.801-83.196-46.698-131.168-44.767-48.264 1.945-93.667 21.838-127.845 56.017-34.179 34.178-54.072 79.582-56.017 127.845-1.933 47.973 13.965 94.556 44.767 131.168 1.483 1.764 3.606 2.672 5.743 2.672 1.704 0 3.418-.578 4.824-1.761 3.17-2.667 3.578-7.398.911-10.567-28.388-33.743-43.039-76.682-41.258-120.908z"/>
    </g>
</svg>